<svg width="318" height="121" viewBox="0 0 318 121" fill="none" xmlns="http://www.w3.org/2000/svg">
<path d="M0 47.551C2.19696 46.1079 4.40849 44.6976 6.6342 43.3202C6.6846 49.7491 6.73501 56.1778 6.78542 62.6066C4.51291 63.6392 2.25098 64.6965 0 65.7783V47.551Z" fill="white"/>
<path d="M9.9093 41.3235C16.7012 37.2433 23.6195 33.4651 30.6455 29.9891C30.6884 31.8513 30.7313 33.7134 30.7744 35.5755C28.411 36.6697 26.0591 37.7956 23.7191 38.9537C23.8294 44.4064 23.9396 49.8592 24.0498 55.312C21.7328 56.2192 19.425 57.151 17.127 58.1074C17.0418 52.8888 16.9565 47.6704 16.8713 42.4519C14.5556 43.6725 12.2526 44.925 9.96293 46.2094C9.94514 44.5807 9.92722 42.9521 9.9093 41.3235Z" fill="white"/>
<path d="M44.3674 23.6411C46.7219 22.6257 49.0867 21.6432 51.4612 20.6933C51.6279 26.962 51.7945 33.2309 51.9611 39.4996C55.6767 38.2969 59.4114 37.1586 63.1632 36.0851C63.2194 38.2196 63.2756 40.3541 63.3318 42.4885C57.1753 44.116 51.0615 45.9044 44.9985 47.8535C44.7881 39.7827 44.5778 31.7119 44.3674 23.6411Z" fill="white"/>
<path d="M80.4093 10.8547C82.8453 10.1682 85.2882 9.51434 87.7373 8.89298C87.8617 14.4345 87.986 19.9762 88.1103 25.5177C88.1471 27.1662 87.9633 28.7699 87.559 30.3231C87.1551 31.8766 86.4987 33.2942 85.5921 34.5752C84.6851 35.8565 83.7263 36.8189 82.7152 37.4694C81.3104 38.3783 79.6154 39.0408 77.6327 39.4781C76.4857 39.7314 75.2334 39.9201 73.8762 40.0515C72.5188 40.1822 71.3805 40.092 70.4601 39.7765C69.5392 39.4613 68.691 38.9083 67.9147 38.12C67.1382 37.3317 66.5986 36.4608 66.2948 35.4978C65.8043 33.9493 65.5426 32.5377 65.509 31.2508C65.3728 26.0442 65.2368 20.8376 65.1008 15.631C67.5043 14.8072 69.9163 14.0159 72.3359 13.2572C72.4737 18.7088 72.6115 24.1601 72.7493 29.6116C72.7863 31.0734 73.1705 32.1214 73.9029 32.7666C74.6352 33.4117 75.6329 33.5827 76.8981 33.2795C78.1524 32.9791 79.1272 32.3396 79.8218 31.3463C80.5164 30.3537 80.8461 29.0958 80.8096 27.5758C80.6762 22.002 80.5427 16.4284 80.4093 10.8547Z" fill="white"/>
<path d="M92.6387 7.69562C97.2489 6.61133 101.88 5.64151 106.527 4.78642C108.851 4.3588 110.65 4.7502 111.919 5.94124C113.187 7.13241 113.837 8.76999 113.869 10.8308C113.896 12.5598 113.474 14.1071 112.606 15.4715C112.028 16.3818 111.173 17.1581 110.044 17.8075C111.78 18.0468 113.066 18.7333 113.901 19.8512C114.735 20.9696 115.166 22.4663 115.194 24.3306C115.217 25.8489 114.948 27.2504 114.388 28.5325C113.827 29.8152 113.051 30.8695 112.06 31.6994C111.445 32.2161 110.513 32.6534 109.264 33.0184C107.603 33.5051 106.502 33.7927 105.958 33.8697C101.707 34.4732 97.4663 35.1498 93.2388 35.8994C93.0387 26.4982 92.8386 17.097 92.6387 7.69562ZM100.327 17.2669C101.4 17.0657 102.474 16.8698 103.549 16.6798C104.705 16.4754 105.506 16.0997 105.951 15.5425C106.396 14.986 106.611 14.2535 106.595 13.3457C106.58 12.5041 106.342 11.8848 105.879 11.4919C105.417 11.099 104.622 11.0038 103.497 11.2128C102.404 11.4159 101.313 11.6249 100.222 11.8401C100.257 13.649 100.292 15.458 100.327 17.2669ZM100.544 28.5109C101.799 28.3007 103.055 28.0971 104.312 27.9005C105.586 27.7016 106.48 27.2953 106.993 26.6706C107.507 26.0464 107.756 25.2729 107.74 24.3504C107.725 23.4941 107.454 22.8448 106.927 22.4058C106.399 21.9672 105.486 21.8516 104.189 22.067C102.936 22.2752 101.683 22.4906 100.432 22.7133C100.47 24.6458 100.507 26.5784 100.544 28.5109Z" fill="white"/>
<path d="M118.794 2.80026C121.29 2.4509 123.789 2.13415 126.292 1.85014C126.377 9.30398 126.461 16.7578 126.546 24.2117C130.424 23.8521 134.307 23.5572 138.194 23.3268C138.212 25.7843 138.231 28.2419 138.249 30.6995C131.887 31.0486 125.535 31.5588 119.2 32.2295C119.065 22.4197 118.929 12.61 118.794 2.80026Z" fill="white"/>
<path d="M141.752 0.513008C144.269 0.363054 146.788 0.246023 149.307 0.161829C149.342 10.1916 149.376 20.2216 149.411 30.2514C146.918 30.3146 144.426 30.4024 141.935 30.5146C141.874 20.5141 141.813 10.5135 141.752 0.513008Z" fill="white"/>
<path d="M154.769 0.0309768C157.117 -0.00332738 159.466 -0.0090039 161.814 0.0136979C164.873 5.59932 167.914 11.2293 170.935 16.8836C170.959 11.3386 170.982 5.79357 171.006 0.248583C173.375 0.346687 175.743 0.473933 178.11 0.630165C178.042 10.6209 177.975 20.6118 177.908 30.6025C175.565 30.4855 173.222 30.3901 170.878 30.3165C167.887 24.7189 164.878 19.1398 161.85 13.5992C161.845 19.113 161.839 24.627 161.834 30.1408C159.494 30.1234 157.154 30.1275 154.814 30.1534C154.799 20.1125 154.784 10.0717 154.769 0.0309768Z" fill="white"/>
<path d="M0.138794 73.6413C10.8359 69.2957 21.7415 65.4158 32.8113 62.0015C38.346 60.289 42.6682 60.4891 45.7424 62.6483C48.8168 64.8022 50.4234 68.1807 50.5391 72.5681C50.6368 76.2495 49.6442 79.6074 47.5615 82.5517C46.1733 84.5169 44.1109 86.1945 41.3796 87.5939C45.5931 87.9813 48.7338 89.3832 50.787 91.7658C52.8398 94.1464 53.9233 97.3922 54.0297 101.399C54.1165 104.662 53.4867 107.645 52.1394 110.284C50.7915 112.924 48.9075 115 46.4864 116.507C44.9862 117.447 42.703 118.131 39.6381 118.559C35.5597 119.13 32.8503 119.396 31.5132 119.404C21.0552 119.458 10.5997 119.519 0.147044 119.586C0.144208 104.271 0.1415 88.9561 0.138794 73.6413ZM17.9482 87.5949C20.5216 87.0463 23.1012 86.5132 25.6866 85.9955C28.4685 85.4404 30.4003 84.6059 31.4707 83.4435C32.5408 82.2848 33.055 80.7948 33.0128 78.995C32.9736 77.3263 32.3971 76.1435 31.2879 75.4769C30.1783 74.809 28.2754 74.8265 25.5882 75.5324C22.9788 76.2168 20.3771 76.9221 17.7837 77.648C17.8386 80.9637 17.8934 84.2792 17.9482 87.5949ZM18.2891 108.204C21.3526 107.965 24.4192 107.735 27.4888 107.512C30.5985 107.288 32.7817 106.605 34.0324 105.419C35.2833 104.238 35.8858 102.708 35.8411 100.86C35.7998 99.145 35.1353 97.8315 33.8526 96.9526C32.5693 96.0723 30.3536 95.8532 27.2103 96.2852C24.1725 96.7013 21.14 97.1321 18.1133 97.5775C18.1719 101.12 18.2305 104.662 18.2891 108.204Z" fill="white"/>
<path d="M64.2584 119.257C63.6844 97.5159 63.1103 75.775 62.5363 54.0342C72.6191 51.7274 82.8003 49.7897 93.0488 48.2211C98.7503 47.3487 103.139 47.3759 106.186 48.2059C109.235 49.0357 111.716 51.0033 113.622 54.0912C115.528 57.1788 116.513 61.0986 116.583 65.7969C116.643 69.8926 115.988 73.4728 114.624 76.52C113.259 79.5681 111.361 82.0733 108.932 84.0393C107.384 85.2918 105.253 86.3727 102.541 87.2909C104.741 88.0474 106.348 88.856 107.362 89.6985C108.047 90.261 109.046 91.4881 110.36 93.3979C111.672 95.308 112.552 96.7986 112.999 97.8526C116.067 104.844 119.119 111.936 122.15 119.103C115.299 119.113 108.448 119.126 101.598 119.142C98.2139 111.82 94.813 104.633 91.4011 97.6163C90.1033 94.8897 88.9604 93.159 87.9738 92.3951C86.6317 91.4009 85.127 90.9717 83.4617 91.0964C82.9242 91.1366 82.387 91.1771 81.85 91.2182C82.074 100.543 82.2981 109.868 82.5223 119.194C76.4338 119.212 70.3458 119.234 64.2584 119.257ZM81.537 78.1943C84.106 77.911 86.6779 77.6418 89.2528 77.3868C90.0883 77.3041 91.6985 76.8266 94.0883 75.9543C95.297 75.5497 96.2746 74.7142 97.0204 73.4393C97.7661 72.1654 98.1239 70.743 98.0923 69.1797C98.0456 66.8678 97.4003 65.1554 96.1559 64.0611C94.9118 62.9672 92.6085 62.6255 89.2568 63.0647C86.5672 63.4169 83.8815 63.7897 81.2002 64.183C81.3125 68.8535 81.4247 73.5239 81.537 78.1943Z" fill="white"/>
<path d="M123.813 81.9369C123.66 69.7988 126.255 60.1724 131.666 53.0326C137.072 45.9111 144.719 42.0528 154.553 41.9495C164.634 41.8472 172.396 45.5062 177.775 52.4521C183.158 59.4135 185.758 68.9387 185.641 81.0077C185.557 89.7768 184.316 96.9351 181.941 102.534C179.564 108.132 176.177 112.506 171.78 115.647C167.381 118.787 161.929 120.37 155.401 120.369C148.765 120.37 143.269 119.005 138.894 116.307C134.52 113.61 130.944 109.363 128.161 103.596C125.379 97.8259 123.922 90.6344 123.813 81.9369ZM142.239 81.4698C142.286 89.0945 143.436 94.5543 145.678 97.8707C147.92 101.187 150.947 102.842 154.771 102.833C158.703 102.825 161.745 101.19 163.911 97.921C166.074 94.6524 167.175 88.7861 167.201 80.3092C167.223 73.1773 166.102 67.9486 163.827 64.6355C161.553 61.3247 158.453 59.661 154.54 59.6926C150.791 59.7231 147.786 61.4579 145.537 64.845C143.286 68.2349 142.192 73.7778 142.239 81.4698Z" fill="white"/>
<path d="M193.239 81.8976C193.385 69.7363 196.219 60.3717 201.781 54.134C207.337 47.8934 215.022 45.4605 224.719 46.9714C234.66 48.5242 242.179 53.1839 247.337 60.1306C252.494 67.1143 254.918 75.6819 254.642 86.1593C254.441 93.7779 253.119 99.9082 250.676 104.729C248.232 109.543 244.785 113.342 240.338 116.123C235.89 118.899 230.405 120.368 223.876 120.369C217.24 120.372 211.775 119.086 207.466 116.431C203.158 113.781 199.688 109.548 197.049 103.726C194.41 97.906 193.133 90.6068 193.239 81.8976ZM211.625 82.9507C211.494 90.2885 212.512 95.6165 214.671 98.8856C216.83 102.16 219.812 103.829 223.625 103.961C227.544 104.096 230.609 102.69 232.827 99.8003C235.044 96.9047 236.247 91.6451 236.433 83.9407C236.589 77.4585 235.58 72.5928 233.4 69.2847C231.219 65.9838 228.195 64.0403 224.324 63.573C220.615 63.1256 217.599 64.379 215.289 67.3524C212.977 70.3235 211.758 75.548 211.625 82.9507Z" fill="white"/>
<path d="M255.971 54.1501C262.293 55.6046 268.576 57.2045 274.812 58.9495C278.784 74.6515 282.781 89.5638 286.853 103.537C291.485 90.3522 296.029 78.1357 300.427 67.0326C306.341 69.1172 312.201 71.3385 318 73.6968C311.134 86.2012 303.775 101.643 296.168 119.455C289.603 119.419 283.036 119.385 276.469 119.354C269.566 99.4831 262.79 77.5535 255.971 54.1501Z" fill="white"/>
</svg>
